
<svg xmlns="http://www.w3.org/2000/svg" version="1.1" xmlns:xlink="http://www.w3.org/1999/xlink" preserveAspectRatio="none" x="0px" y="0px" width="128px" height="128px" viewBox="0 0 128 128">
<defs/>

<g id="Layer_1">
<g>
<g>
<g>
<path fill="#333333" stroke="none" d="
M 56.4 53.2
L 1.6 60 42.4 122.4 118.8 105.6 56.4 53.2 Z"/>
</g>
</g>
</g>
</g>

<g id="Layer_3">
<g>
<g>
<g>
<path fill="#B29626" stroke="none" d="
M 60.6 71.45
Q 59.4 71.2 57.65 71.75 55.45 72.5 53.75 73.5 52.892578125 74.0189453125 52.3 74.55 51.855078125 74.0921875 51.4 73.95 50.75 73.8 50.2 74.3 49.6 74.75 49.65 75.4 49.65 75.95 50.3 76.9 50.6927734375 77.4646484375 51.05 78 51.1064453125 78.4501953125 51.2 78.7 51.35 79.35 51.95 79.7 52.1611328125 79.7923828125 52.35 79.8 53.42109375 81.3162109375 54.35 82.6 54.202734375 83.0484375 54.3 83.6 54.55 84.45 55.4 84.6 55.6087890625 84.641796875 55.9 84.6 56.477734375 85.3521484375 57 86 58.05 87.3 60.15 89.8 62 92 63.1 93.7 63.9 94.85 64.4 95.05 65.1 95.3 65.75 94.8 66.4 94.3 66.35 93.6 66.35 93 65.75 92.2 64.55 90.45 62.55 88 60.3 85.35 59.2 83.95 59.0861328125 83.80703125 58.95 83.65 60.61171875 83.032421875 61.75 82.4 64 81.1 64.5 79.35 64.85 78.05 64.2 76.05 63.65 74.3 63 73.25 61.95 71.8 60.6 71.45
M 59 74.55
Q 59.6 74.4 60.05 74.5 60.4 74.65 60.8 75.45
L 61.5 77.55
Q 61.7 78.1 61.55 78.45 61.45 78.95 60.65 79.45 58.934765625 80.56484375 57 81.15 55.4443359375 79.0646484375 54.1 77.15 54.158203125 77.03359375 54.2 76.95 54.4 76.6 54.85 76.35 56.8 75.15 59 74.55
M 39 71.25
Q 37.15 71.65 34.9 72.6 32.15 73.65 30.8 74.65 30.5232421875 74.838671875 30.25 75 29.9947265625 74.9015625 29.75 74.85 28.6 74.6 27.95 75.3 27.45 75.8 27.6 76.55 27.6923828125 77.2423828125 28.25 77.6 28.1330078125 77.890625 28.05 78.2 27.55 80.1 28.7 80.8 29.15 81.1 29.75 81 30.3 80.85 30.6 80.4 30.6693359375 80.29609375 30.85 79.55 32.462109375 81.3337890625 36.35 85.75 40.15 90.1 42.75 92.65 43.55 93.45 44.2 93.55 44.95 93.65 45.5 93.1 46 92.55 45.8 91.75 45.65 91.15 44.85 90.45 42.5244140625 88.2560546875 39.3 84.65
L 45.25 86.1
Q 48.35 86.9 50 87.7 51.35 88.4 51.95 88.3 52.45 88.25 52.8 87.8 53.15 87.4 53.1 86.9 53.1 85.85 51.4 84.9 49.9 84.2 48.2 83.8 46.55 83.5 45.75 83.3 44.3 82.95 43.4 82.45 45.3 81.8 46.2 79.5 46.85 77.7 46.6 75.3 46.3 72.45 44.75 71.45 43.85 70.9 42.2 70.9 40.4 71 39 71.25
M 35.85 75.6
Q 38.9 74.35 39.1 74.3 40.45 73.95 43.2 74.05 43.65 74.85 43.65 76.75 43.65 78 43.35 78.55 43.05 79.3 41.9 79.95 40.65 80.65 38.9 80.9 37.35 81 36.9 81.35 36.75234375 81.4533203125 36.65 81.6 33.752734375 78.2751953125 32.6 76.95 32.8279296875 76.8359375 33.1 76.7 33.25 76.6 35.85 75.6 Z"/>
</g>
</g>
</g>
</g>

<g id="Layer_2">
<g>
<g>
<g>
<path fill="#FFCC00" stroke="none" d="
M 65.6 69.6
Q 64.8 70.8 63.2 71.2 61.2 71.6 60 70.4 58.8 69.6 58.4 68 58.4 66.8 58.2 66.3 58.4171875 66.19140625 58.45 66.15
L 58.95 65.05 59 65
Q 55.6 69.6 55.6 71.2 55.6 72.8 56.8 74 58 75.2 59.6 75.2 61.2 75.2 62.4 74
L 64.4 71.6
Q 65.2 70.8 65.6 69.6 Z"/>

<path fill="#3399CC" stroke="none" d="
M 87.2 36.8
Q 85.6 37.2 84.4 36 83.2 34.8 82.8 33.2 82.8 32 83.2 30.8
L 59.2 64.8
Q 59.092578125 64.907421875 58.95 65.05
L 58.45 66.15
Q 58.4171875 66.19140625 58.2 66.3 58.4 66.8 58.4 68 58.8 69.6 60 70.4 61.2 71.6 63.2 71.2 64.8 70.8 65.6 69.6
L 66 69.2 90 35.2
Q 88.8 36.4 87.2 36.8 Z"/>

<path fill="#FF9900" stroke="none" d="
M 94.4 22.4
Q 93.2 21.2 91.6 21.6 90 22 88.8 23.2
L 83.2 30.8
Q 82.8 32 82.8 33.2 83.2 34.8 84.4 36 85.6 37.2 87.2 36.8 88.8 36.4 90 35.2
L 90.4 34.8 95.2 28
Q 96.4 26.8 96 25.2 95.6 23.6 94.4 22.4 Z"/>
</g>
</g>
</g>
</g>
</svg>
